# xmcd
#
# Track frame offsets:
#	150
#	14258
#	31729
#	51222
#	67736
#	86344
#	105603
#	122394
#	139278
#	156915
#	176041
#
# Disc length: 2550 seconds
# Revision: 4
# Processed by: cddbd v1.5.2PL0 Copyright (c) Steve Scherf et al.
# Submitted via: dBpowerAMP V12.0
#
DISCID=8309f40b
DTITLE=Diamond Rio - The Reason
DYEAR=2009
DGENRE=Country
TTITLE0=The Reason
TTITLE1=This Is My Life
TTITLE2=God Is There
TTITLE3=Reaching For Me
TTITLE4=Into Your Hands
TTITLE5=Just Love
TTITLE6=Moments Of Heaven On Earth
TTITLE7=My God Does
TTITLE8=Wherever I Am
TTITLE9=What Are We Gonna Do Now
TTITLE10=In God We Still Trust
EXTD=
EXTT0=
EXTT1=
EXTT2=
EXTT3=
EXTT4=
EXTT5=
EXTT6=
EXTT7=
EXTT8=
EXTT9=
EXTT10=
PLAYORDER=
